Coordinates
version=1
nRows=16
nColumns=40
inDegrees=yes

Units are S.I. units (second, meters, Newtons, ...)
Angles are in degrees.

endheader
time	pelvis_tilt	pelvis_list	pelvis_rotation	pelvis_tx	pelvis_ty	pelvis_tz	hip_flexion_r	hip_adduction_r	hip_rotation_r	knee_angle_r	knee_angle_r_beta	ankle_angle_r	subtalar_angle_r	mtp_angle_r	hip_flexion_l	hip_adduction_l	hip_rotation_l	knee_angle_l	knee_angle_l_beta	ankle_angle_l	subtalar_angle_l	mtp_angle_l	lumbar_extension	lumbar_bending	lumbar_rotation	arm_flex_r	arm_add_r	arm_rot_r	elbow_flex_r	pro_sup_r	wrist_flex_r	wrist_dev_r	arm_flex_l	arm_add_l	arm_rot_l	elbow_flex_l	pro_sup_l	wrist_flex_l	wrist_dev_l
     55.78750000	     -3.25688455	     -4.72614207	      0.23811946	      1.02881806	      0.92403701	      0.44491335	     20.86097595	      3.24166254	    -14.36368560	     18.23914167	     18.23914167	      3.19582585	     -4.66347458	     -2.57571022	     -1.41088704	     -9.99657271	    -10.88666004	     32.38564229	     32.38564229	     12.33102308	     -5.83146881	    -15.40107711	     -7.51483305	      5.61633180	      1.08397535	     -4.74267418	    -12.09320125	     -5.28217849	     27.27829881	     46.00698007	      0.00000000	      0.00000000	     14.69838438	    -12.92155942	     -5.10229224	     77.00080758	     47.64386130	      0.00000000	      0.00000000
     55.80000000	     -3.09275037	     -4.73352681	      0.38845609	      1.03095338	      0.92544881	      0.44753491	     19.88302724	      3.37026217	    -14.80482976	     18.04343021	     18.04343021	      3.82942958	     -3.91846405	     -2.77758756	      0.08605779	    -10.71242735	    -10.16224135	     36.23047998	     36.23047998	     10.27753122	     -7.10964522	    -15.86881865	     -7.49684848	      5.56501754	      0.75280765	     -3.12281372	    -12.15187504	     -5.35084765	     28.55486814	     45.97301570	      0.00000000	      0.00000000	     13.62206822	    -12.84659963	     -4.73255859	     74.90109791	     47.57864101	      0.00000000	      0.00000000
     55.81250000	     -3.03692992	     -4.56620679	      0.57441412	      1.03287474	      0.92667483	      0.44977303	     19.01524429	      3.19315295	    -15.63234941	     17.87173702	     17.87173702	      4.54520837	     -2.42442206	     -2.97042680	      1.82073516	    -11.03816848	     -9.07261877	     40.01355548	     40.01355548	      7.85673481	     -9.16223077	    -16.13026893	     -7.27164639	      5.38581902	      0.48354385	     -1.86838437	    -12.24833596	     -5.42562462	     30.80557916	     45.89552187	      0.00000000	      0.00000000	     13.07422332	    -12.61691326	     -4.23048762	     70.93945176	     47.47963863	      0.00000000	      0.00000000
     55.82500000	     -2.80617654	     -4.52745679	      0.80037487	      1.03448539	      0.92792374	      0.45182602	     18.01834983	      3.12747051	    -16.53753580	     17.78378937	     17.78378937	      5.26391028	     -0.94721238	     -2.95868934	      3.55718438	    -11.46487584	     -7.99177895	     43.94461639	     43.94461639	      5.88050965	    -10.91618876	    -15.12411465	     -7.35214233	      5.36317406	      0.94433339	     -1.26439061	    -12.60938498	     -5.55551612	     33.84416656	     45.78575842	      0.00000000	      0.00000000	     13.28723218	    -11.95842415	     -3.28286672	     66.57395631	     47.35003014	      0.00000000	      0.00000000
     55.83750000	     -2.67873000	     -4.73766605	      1.01650331	      1.03572474	      0.92880806	      0.45398169	     17.05168923	      3.47875980	    -17.03372861	     17.39368028	     17.39368028	      5.66348194	     -0.34006905	     -2.98665033	      5.57840827	    -12.28711747	     -7.19667693	     47.93276863	     47.93276863	      4.10112236	    -12.07081650	    -14.36748457	     -7.42441612	      5.58109063	      1.05114349	      0.30496797	    -12.85940061	     -5.70048866	     35.16977696	     45.75352379	      0.00000000	      0.00000000	     12.33374932	    -11.54611152	     -2.75989276	     64.96791949	     47.28070470	      0.00000000	      0.00000000
     55.85000000	     -2.70873167	     -4.87768034	      1.37446562	      1.03658717	      0.92947281	      0.45556732	     16.25423391	      3.64761216	    -17.87884766	     16.98123425	     16.98123425	      6.08225960	      0.72063685	     -3.01630175	      7.92113665	    -12.77045376	     -6.01479111	     51.75374677	     51.75374677	      2.77291198	    -13.65932388	    -12.38503827	     -7.22009915	      5.84275210	      0.62475797	      1.87180327	    -13.01160126	     -5.90266633	     37.18607879	     45.69652908	      0.00000000	      0.00000000	     11.42270519	    -11.42323834	     -2.15091163	     62.01108114	     47.18482889	      0.00000000	      0.00000000
     55.86250000	     -2.52904447	     -4.81913464	      1.52719551	      1.03713460	      0.93047397	      0.45706923	     15.43557137	      3.51831514	    -18.77299878	     17.01689918	     17.01689918	      6.87335467	      2.41248678	     -2.33628103	     10.17470904	    -13.05498242	     -5.24907848	     55.77320676	     55.77320676	      4.63950334	    -13.11233036	     -3.59778533	     -7.37311259	      5.84832987	      2.45179924	      1.16783431	    -13.87275191	     -6.50488536	     42.69546840	     45.51642461	      0.00000000	      0.00000000	     13.26032729	    -10.02194389	     -0.07671452	     55.01423608	     46.93201272	      0.00000000	      0.00000000
     55.87500000	     -2.48684601	     -4.97633549	      1.77010573	      1.03740106	      0.93122186	      0.45843953	     14.70737485	      3.70443804	    -19.44318610	     16.80762872	     16.80762872	      7.32114876	      3.36037007	     -2.03749130	     12.46208299	    -13.50408801	     -4.45968179	     58.98869624	     58.98869624	      4.83801283	    -13.96918772	      0.40721848	     -7.37612214	      6.11112274	      2.70450904	      2.46901494	    -14.17786854	     -7.35509625	     45.31639147	     45.48054446	      0.00000000	      0.00000000	     12.75608447	     -9.71029966	      1.30087216	     51.88805228	     46.76184042	      0.00000000	      0.00000000
     55.88750000	     -2.37550259	     -5.14439995	      1.98558867	      1.03738973	      0.93211795	      0.45971205	     13.92290090	      3.95045689	    -19.92517574	     16.55438289	     16.55438289	      7.56016705	      3.97039370	     -1.93328653	     14.53571733	    -13.95008169	     -3.86320590	     61.53251597	     61.53251597	      4.49345104	    -15.16132033	      2.08896346	     -7.49965677	      6.38384986	      2.51574392	      4.52396675	    -14.35241759	     -7.63626997	     47.10062928	     45.44549086	      0.00000000	      0.00000000	     11.76111997	     -9.49004078	      1.86482880	     49.44332792	     46.66737249	      0.00000000	      0.00000000
     55.90000000	     -2.35828306	     -5.35875206	      2.13468281	      1.03723820	      0.93285709	      0.46092172	     13.22072330	      4.29835283	    -20.17504763	     16.20857819	     16.20857819	      7.82325311	      4.34127632	     -1.89843019	     16.60227874	    -14.46052980	     -3.45920773	     63.52971126	     63.52971126	      4.23978052	    -16.29446553	      2.69858039	     -7.47292439	      6.69808423	      2.59526306	      6.54018176	    -14.65840520	     -7.82958877	     48.36751396	     45.42117079	      0.00000000	      0.00000000	     10.58036001	     -9.11289944	      2.23172783	     48.01556676	     46.60444704	      0.00000000	      0.00000000
     55.91250000	     -2.31607183	     -5.45938898	      2.30485666	      1.03686121	      0.93386433	      0.46192543	     12.49315274	      4.49432474	    -20.48564331	     15.85605818	     15.85605818	      7.96802477	      4.90418393	     -1.75513598	     18.59899491	    -14.79832249	     -3.13894986	     65.03993185	     65.03993185	      4.48399670	    -17.07891991	      4.00919047	     -7.51073448	      6.93534669	      2.34523951	      8.78009331	    -14.66674882	     -7.92439859	     50.22660155	     45.37270909	      0.00000000	      0.00000000	      9.43001597	     -8.94193999	      2.70079619	     45.48856047	     46.51997809	      0.00000000	      0.00000000
     55.92500000	     -2.22707654	     -5.48314619	      2.35237035	      1.03637986	      0.93494201	      0.46274538	     11.81453178	      4.57175376	    -20.73413987	     15.71776580	     15.71776580	      8.34020040	      5.53650912	     -1.36535691	     20.47047189	    -15.01930265	     -3.01002988	     66.18233355	     66.18233355	      6.09434740	    -17.26796210	      8.02252839	     -7.62097888	      7.10737120	      3.23145686	     10.09009027	    -15.43084606	     -7.82638686	     52.77395464	     45.29849259	      0.00000000	      0.00000000	      9.54333862	     -8.08377194	      3.51833552	     41.06405623	     46.38385406	      0.00000000	      0.00000000
     55.93750000	     -2.18951758	     -5.53643878	      2.39034802	      1.03586970	      0.93594490	      0.46355420	     11.11418020	      4.76206509	    -20.72793062	     15.37006790	     15.37006790	      8.48716974	      5.75905625	     -1.28163226	     22.12916710	    -15.28070154	     -3.00424988	     66.49130634	     66.49130634	      6.52430769	    -17.70632314	      8.25226169	     -7.68688684	      7.30256745	      3.20597479	     12.39867793	    -15.47289762	     -8.09187927	     54.26039889	     45.27202391	      0.00000000	      0.00000000	      8.03363823	     -7.93220294	      3.81261129	     39.83901830	     46.31970850	      0.00000000	      0.00000000
     55.95000000	     -2.12616872	     -5.50050254	      2.38535631	      1.03532446	      0.93698425	      0.46423302	     10.38303519	      4.85272448	    -20.69064432	     15.02799197	     15.02799197	      8.66365153	      6.03340353	     -1.21563177	     23.58113424	    -15.39866445	     -3.11321470	     66.23166035	     66.23166035	      7.10372204	    -17.93733192	      8.65491079	     -7.77566364	      7.40651400	      3.19743678	     14.68943558	    -15.48679438	     -8.22511487	     55.82295981	     45.23768964	      0.00000000	      0.00000000	      6.60613120	     -7.77519750	      4.11974366	     38.34906414	     46.25295771	      0.00000000	      0.00000000
     55.96250000	     -2.09729081	     -5.40906868	      2.32851462	      1.03470951	      0.93791229	      0.46472548	      9.69049541	      4.86945449	    -20.60839299	     14.69281673	     14.69281673	      8.84597959	      6.32964629	     -1.15640521	     24.89440986	    -15.38475305	     -3.28168046	     65.44868286	     65.44868286	      7.77193747	    -18.02311814	      9.21346481	     -7.85451353	      7.45598948	      3.35051314	     16.87205167	    -15.57493486	     -8.23083436	     57.44990512	     45.19730463	      0.00000000	      0.00000000	      5.30244630	     -7.56657521	      4.42373269	     36.72839309	     46.18538054	      0.00000000	      0.00000000
     55.97500000	     -2.07719094	     -5.26772526	      2.26769300	      1.03404503	      0.93872353	      0.46507169	      9.00018118	      4.83428204	    -20.46510938	     14.34210949	     14.34210949	      9.08206253	      6.56244435	     -1.13487294	     26.02345500	    -15.24450253	     -3.48089257	     64.11754641	     64.11754641	      8.29243279	    -18.03660067	      9.58184493	     -7.93920145	      7.47827220	      3.44687097	     19.04279282	    -15.63881672	     -8.26965518	     59.05983458	     45.15761403	      0.00000000	      0.00000000	      3.89312552	     -7.40545760	      4.65583482	     35.38607353	     46.12726028	      0.00000000	      0.00000000
